<svg width="12" height="12" viewBox="0 0 12 12" fill="none" xmlns="http://www.w3.org/2000/svg">
<path d="M6.00352 1.08068C7.60758 1.08068 7.79754 1.08771 8.42838 1.11584C9.01466 1.14163 9.33125 1.24009 9.54231 1.32213C9.82138 1.42997 10.0231 1.56124 10.2318 1.76988C10.4428 1.98086 10.5718 2.18011 10.6797 2.45907C10.7618 2.67005 10.8603 2.98886 10.8861 3.57257C10.9142 4.20551 10.9212 4.39539 10.9212 5.99648C10.9212 7.59992 10.9142 7.7898 10.8861 8.4204C10.8603 9.00645 10.7618 9.32292 10.6797 9.53389C10.5718 9.81285 10.4405 10.0145 10.2318 10.2231C10.0207 10.4341 9.82138 10.563 9.54231 10.6708C9.33125 10.7529 9.01231 10.8513 8.42838 10.8771C7.79519 10.9053 7.60524 10.9123 6.00352 10.9123C4.39945 10.9123 4.2095 10.9053 3.57866 10.8771C2.99238 10.8513 2.67579 10.7529 2.46473 10.6708C2.18566 10.563 1.98398 10.4317 1.77526 10.2231C1.5642 10.0121 1.43522 9.81285 1.32734 9.53389C1.24526 9.32292 1.14677 9.0041 1.12097 8.4204C1.09283 7.78746 1.08579 7.59758 1.08579 5.99648C1.08579 4.39305 1.09283 4.20316 1.12097 3.57257C1.14677 2.98652 1.24526 2.67005 1.32734 2.45907C1.43522 2.18011 1.56654 1.97851 1.77526 1.76988C1.98632 1.5589 2.18566 1.42997 2.46473 1.32213C2.67579 1.24009 2.99472 1.14163 3.57866 1.11584C4.2095 1.08771 4.39945 1.08068 6.00352 1.08068ZM6.00352 0C4.37366 0 4.16963 0.00703262 3.52941 0.0351631C2.89154 0.0632936 2.453 0.166439 2.07309 0.314124C1.67676 0.468842 1.34141 0.672788 1.0084 1.00801C0.673051 1.34089 0.469025 1.67611 0.314247 2.06994C0.166504 2.45204 0.0633184 2.88806 0.0351769 3.52569C0.00703537 4.168 0 4.37195 0 6.00117C0 7.6304 0.00703537 7.83434 0.0351769 8.47431C0.0633184 9.11194 0.166504 9.5503 0.314247 9.93007C0.469025 10.3262 0.673051 10.6615 1.0084 10.9943C1.34141 11.3272 1.67676 11.5335 2.07074 11.6859C2.453 11.8336 2.88919 11.9367 3.52707 11.9648C4.16729 11.993 4.37131 12 6.00117 12C7.63103 12 7.83506 11.993 8.47528 11.9648C9.11315 11.9367 9.55169 11.8336 9.9316 11.6859C10.3256 11.5335 10.6609 11.3272 10.9939 10.9943C11.3269 10.6615 11.5333 10.3262 11.6858 9.93241C11.8335 9.5503 11.9367 9.11428 11.9648 8.47666C11.993 7.83669 12 7.63274 12 6.00352C12 4.37429 11.993 4.17035 11.9648 3.53038C11.9367 2.89275 11.8335 2.45439 11.6858 2.07462C11.538 1.67611 11.334 1.34089 10.9986 1.00801C10.6656 0.675132 10.3303 0.468842 9.93629 0.316468C9.55404 0.168783 9.11784 0.0656378 8.47997 0.0375073C7.83741 0.00703263 7.63338 0 6.00352 0Z" fill="#2A2A2A"/>
<path d="M6.00352 2.91854C4.30096 2.91854 2.91968 4.29928 2.91968 6.00117C2.91968 7.70307 4.30096 9.08381 6.00352 9.08381C7.70608 9.08381 9.08736 7.70307 9.08736 6.00117C9.08736 4.29928 7.70608 2.91854 6.00352 2.91854ZM6.00352 8.00078C4.89896 8.00078 4.00313 7.10529 4.00313 6.00117C4.00313 4.89705 4.89896 4.00156 6.00352 4.00156C7.10807 4.00156 8.00391 4.89705 8.00391 6.00117C8.00391 7.10529 7.10807 8.00078 6.00352 8.00078Z" fill="#2A2A2A"/>
<path d="M9.92925 2.79662C9.92925 3.19513 9.60563 3.51629 9.2093 3.51629C8.81063 3.51629 8.48935 3.19279 8.48935 2.79662C8.48935 2.3981 8.81298 2.07694 9.2093 2.07694C9.60563 2.07694 9.92925 2.40044 9.92925 2.79662Z" fill="#2A2A2A"/>
</svg>
