<svg width="20" height="22" viewBox="0 0 20 22" fill="none" xmlns="http://www.w3.org/2000/svg">
<path d="M14.2852 0.900391C14.4537 0.900391 14.6326 0.972195 14.7334 1.12891L19.0186 7.7998C19.1213 7.95938 19.1278 8.16191 19.0332 8.32715C18.9391 8.49145 18.7622 8.59175 18.5713 8.5918H16.5283V19.332C16.5283 20.3096 15.7119 21.0996 14.7139 21.0996H13.8574C13.4942 21.0996 13.0431 20.9834 12.6807 20.7041C12.3145 20.4218 12.043 19.9759 12.043 19.332V16.4141C12.043 16.1256 12.2822 15.8965 12.5713 15.8965C12.8604 15.8965 13.0996 16.1256 13.0996 16.4141V19.332C13.0996 19.5149 13.1406 19.6484 13.1992 19.7461C13.2579 19.8439 13.3383 19.9114 13.4238 19.959C13.598 20.0558 13.7919 20.0664 13.8574 20.0664H14.7139C15.1339 20.0664 15.4717 19.7341 15.4717 19.332V8.0752C15.4717 7.78724 15.7108 7.55762 16 7.55762H17.6143L14.2852 2.37598L10.957 7.55762H12.5713C12.8605 7.55763 13.0996 7.78725 13.0996 8.0752V11.8271C13.0996 15.1037 10.3611 17.7646 7 17.7646C3.63889 17.7646 0.900391 15.1037 0.900391 11.8271C0.900505 8.55067 3.63892 5.89066 7 5.89062C7.28916 5.89066 7.52832 6.11929 7.52832 6.40723C7.52828 6.69512 7.28913 6.9238 7 6.92383C4.21689 6.92383 1.95715 9.12618 1.95703 11.8271C1.95703 14.5282 4.21682 16.7305 7 16.7305C9.78316 16.7304 12.043 14.5282 12.043 11.8271V8.5918H10C9.80886 8.5918 9.63211 8.49145 9.53809 8.32715C9.44359 8.16198 9.45052 7.95931 9.55273 7.7998L13.8379 1.12891C13.9386 0.972307 14.1168 0.900493 14.2852 0.900391ZM7 7.97461C7.28914 7.97466 7.52832 8.20427 7.52832 8.49219V8.80859H7.85742C8.61859 8.80879 9.24294 9.41206 9.24316 10.1592V10.5762C9.24316 10.8641 9.00305 11.0938 8.71387 11.0938C8.42482 11.0936 8.1855 10.864 8.18555 10.5762V10.1592C8.18529 9.98754 8.0406 9.84297 7.85742 9.84277H6.14258C5.95929 9.84288 5.81471 9.98752 5.81445 10.1592V10.9932C5.81445 11.165 5.95916 11.3104 6.14258 11.3105H7.85742C8.61871 11.3107 9.2431 11.9139 9.24316 12.6611V13.4951C9.24316 14.2424 8.61875 14.8455 7.85742 14.8457H7.52832V15.1631C7.52821 15.4514 7.28902 15.6797 7 15.6797C6.71095 15.6797 6.47179 15.4514 6.47168 15.1631V14.8457H6.14258C5.38119 14.8456 4.75684 14.2425 4.75684 13.4951V13.0781C4.75686 12.7899 4.99625 12.5618 5.28516 12.5615C5.57426 12.5615 5.81443 12.7897 5.81445 13.0781V13.4951C5.81447 13.6673 5.95911 13.8124 6.14258 13.8125H7.85742C8.04085 13.8123 8.18553 13.6673 8.18555 13.4951V12.6611C8.1855 12.489 8.04079 12.3449 7.85742 12.3447H6.14258C5.38119 12.3446 4.75684 11.7405 4.75684 10.9932V10.1592C4.75706 9.412 5.38133 8.8087 6.14258 8.80859H6.47168V8.49219C6.47168 8.20423 6.71081 7.97461 7 7.97461Z" fill="white" stroke="white" stroke-width="0.2"/>
</svg>
