<svg width="31" height="28" viewBox="0 0 31 28" fill="none" xmlns="http://www.w3.org/2000/svg">
<path d="M7.304 0.375999H13.544L9.992 16.408C11.432 17.56 12.392 19.288 12.392 21.304C12.392 24.76 9.608 27.448 6.248 27.448C2.792 27.448 0.00800061 24.76 0.00800061 21.304C0.00800061 20.344 0.2 19.384 0.680001 18.616L7.304 0.375999ZM24.584 0.375999H30.824L27.272 16.408C28.712 17.56 29.672 19.288 29.672 21.304C29.672 24.76 26.888 27.448 23.432 27.448C20.072 27.448 17.288 24.76 17.288 21.304C17.288 20.344 17.48 19.384 17.96 18.616L24.584 0.375999Z" fill="#2A2A2A"/>
</svg>
