<svg width="20" height="20" viewBox="0 0 20 20" fill="none" xmlns="http://www.w3.org/2000/svg">
<g clip-path="url(#clip0_591_3867)">
<path d="M10 20C15.5228 20 20 15.5228 20 10C20 4.47715 15.5228 0 10 0C4.47715 0 0 4.47715 0 10C0 15.5228 4.47715 20 10 20Z" fill="black"/>
<path fill-rule="evenodd" clip-rule="evenodd" d="M4.52782 9.89446C7.44302 8.62435 9.38695 7.78702 10.3596 7.38246C13.1367 6.22737 13.7138 6.02672 14.0899 6.02009C14.1726 6.01863 14.3576 6.03913 14.4774 6.13635C14.5785 6.21844 14.6064 6.32934 14.6197 6.40717C14.633 6.485 14.6496 6.6623 14.6364 6.80083C14.4859 8.38207 13.8348 12.2193 13.5035 13.9903C13.3633 14.7397 13.0873 14.991 12.8201 15.0155C12.2393 15.069 11.7984 14.6318 11.2359 14.2631C10.3558 13.6861 9.85857 13.327 9.00425 12.764C8.01694 12.1134 8.65697 11.7558 9.21964 11.1714C9.36689 11.0184 11.9256 8.69115 11.9751 8.48002C11.9813 8.45362 11.987 8.3552 11.9285 8.30322C11.8701 8.25125 11.7838 8.26903 11.7215 8.28316C11.6332 8.30319 10.2272 9.23252 7.50344 11.0711C7.10435 11.3452 6.74286 11.4787 6.41898 11.4717C6.06193 11.464 5.37511 11.2698 4.86452 11.1039C4.23827 10.9003 3.74054 10.7927 3.78388 10.4469C3.80646 10.2669 4.05443 10.0827 4.52782 9.89446Z" fill="white"/>
</g>
<defs>
<clipPath id="clip0_591_3867">
<rect width="20" height="20" fill="white"/>
</clipPath>
</defs>
</svg>
