<svg width="12" height="12" viewBox="0 0 12 12" fill="none" xmlns="http://www.w3.org/2000/svg">
<path d="M0 12L0.847526 8.9185C0.324541 8.0165 0.0497362 6.994 0.0502386 5.9455C0.0517458 2.6675 2.73198 0 6.02512 0C7.62321 0.0005 9.12333 0.62 10.2517 1.744C11.3796 2.868 12.0005 4.362 12 5.951C11.9985 9.2295 9.31826 11.897 6.02512 11.897C5.02537 11.8965 4.04019 11.647 3.16755 11.173L0 12ZM3.31424 10.0965C4.15624 10.594 4.96006 10.892 6.02311 10.8925C8.76011 10.8925 10.9897 8.6755 10.9912 5.95C10.9922 3.219 8.77317 1.005 6.02713 1.004C3.28812 1.004 1.06004 3.221 1.05903 5.946C1.05853 7.0585 1.38608 7.8915 1.9362 8.763L1.43431 10.587L3.31424 10.0965ZM9.03491 7.3645C8.99774 7.3025 8.89827 7.2655 8.74856 7.191C8.59935 7.1165 7.86536 6.757 7.72821 6.7075C7.59156 6.658 7.49209 6.633 7.39211 6.782C7.29264 6.9305 7.00628 7.2655 6.91937 7.3645C6.83245 7.4635 6.74504 7.476 6.59583 7.4015C6.44662 7.327 5.96533 7.1705 5.39513 6.664C4.95152 6.27 4.65159 5.7835 4.56468 5.6345C4.47777 5.486 4.55564 5.4055 4.62999 5.3315C4.69731 5.265 4.7792 5.158 4.85406 5.071C4.92992 4.985 4.95453 4.923 5.00477 4.8235C5.05451 4.7245 5.02989 4.6375 4.99221 4.563C4.95453 4.489 4.65612 3.7575 4.53203 3.46C4.41045 3.1705 4.28736 3.2095 4.19593 3.205L3.90957 3.2C3.8101 3.2 3.64833 3.237 3.51168 3.386C3.37503 3.535 2.9892 3.894 2.9892 4.6255C2.9892 5.357 3.52424 6.0635 3.59859 6.1625C3.67345 6.2615 4.65109 7.7625 6.14871 8.406C6.5049 8.559 6.78322 8.6505 6.99975 8.719C7.35745 8.832 7.68299 8.816 7.94022 8.778C8.22708 8.7355 8.82341 8.4185 8.948 8.0715C9.07259 7.724 9.07259 7.4265 9.03491 7.3645Z" fill="#2A2A2A"/>
</svg>
